<svg xmlns="http://www.w3.org/2000/svg" viewBox="0 0 64 64">
  <!-- Background -->
  <defs>
    <linearGradient id="g" x1="0" y1="0" x2="1" y2="1">
      <stop offset="0" stop-color="#0f172a"/>
      <stop offset="1" stop-color="#111827"/>
    </linearGradient>
  </defs>
  <rect width="64" height="64" rx="12" fill="url(#g)"/>

  <!-- Document sheet -->
  <rect x="12" y="10" width="32" height="44" rx="4" fill="#ffffff"/>
  <!-- Folded corner -->
  <path d="M44 10 v12 h-12 z" fill="#e5e7eb"/>
  <!-- Lines on document -->
  <rect x="16" y="24" width="20" height="3" rx="1.5" fill="#cbd5e1"/>
  <rect x="16" y="30" width="16" height="3" rx="1.5" fill="#cbd5e1"/>
  <rect x="16" y="36" width="18" height="3" rx="1.5" fill="#cbd5e1"/>

  <!-- Emoji face coin -->
  <circle cx="45" cy="46" r="10" fill="#facc15"/>
  <circle cx="41.5" cy="43" r="1.5" fill="#78350f"/>
  <circle cx="48.5" cy="43" r="1.5" fill="#78350f"/>
  <path d="M40 48 q5 4 10 0" fill="none" stroke="#78350f" stroke-width="2" stroke-linecap="round"/>

  <!-- Sparkle -->
  <path d="M28 18 l1.6 3.8 4 .6-3 2.7.8 3.9-3.4-2-3.4 2 .8-3.9-3-2.7 4-.6z"
        fill="#38bdf8"/>
</svg>
